/* XPM */
static char * chromeditplus_xpm[] = {
"16 16 142 2",
"  	c None",
". 	c #494340",
"+ 	c #605955",
"@ 	c #625C56",
"# 	c #4B433F",
"$ 	c #7C7672",
"% 	c #DEDAD2",
"& 	c #B6B0A4",
"* 	c #AFAA9B",
"= 	c #999283",
"- 	c #443C37",
"; 	c #3A332B",
"> 	c #E2DFDA",
", 	c #A29D8F",
"' 	c #B1ACA1",
") 	c #8F887A",
"! 	c #332B29",
"~ 	c #474038",
"{ 	c #D0CDC5",
"] 	c #888173",
"^ 	c #B5B0A2",
"/ 	c #514941",
"( 	c #3A3330",
"_ 	c #897B74",
": 	c #A08870",
"< 	c #B5B0A9",
"[ 	c #7E7668",
"} 	c #868071",
"| 	c #ACA698",
"1 	c #8E877C",
"2 	c #86817D",
"3 	c #ADA8A0",
"4 	c #716B66",
"5 	c #69605E",
"6 	c #D7BF9B",
"7 	c #E2B266",
"8 	c #D2964B",
"9 	c #BEA288",
"0 	c #5B5246",
"a 	c #787265",
"b 	c #787164",
"c 	c #8A867C",
"d 	c #918C7F",
"e 	c #7C786E",
"f 	c #3B3432",
"g 	c #312C2D",
"h 	c #A0907A",
"i 	c #EEC484",
"j 	c #D49C52",
"k 	c #C48740",
"l 	c #B47533",
"m 	c #B27A43",
"n 	c #786C5E",
"o 	c #848687",
"p 	c #848480",
"q 	c #8C8C88",
"r 	c #989C9A",
"s 	c #525050",
"t 	c #574D48",
"u 	c #D2AA7B",
"v 	c #E3AB54",
"w 	c #C1843F",
"x 	c #B77936",
"y 	c #B27636",
"z 	c #A4672C",
"A 	c #87552E",
"B 	c #A38A72",
"C 	c #ACB5BC",
"D 	c #949A9E",
"E 	c #82868A",
"F 	c #494341",
"G 	c #53463F",
"H 	c #CF9B64",
"I 	c #C2843E",
"J 	c #7C481E",
"K 	c #3D1606",
"L 	c #9D6838",
"M 	c #905420",
"N 	c #925827",
"O 	c #947460",
"P 	c #92827A",
"Q 	c #37312D",
"R 	c #0B0908",
"S 	c #84644A",
"T 	c #85441E",
"U 	c #AA723C",
"V 	c #754A27",
"W 	c #290F08",
"X 	c #947055",
"Y 	c #854A1B",
"Z 	c #8E6648",
"` 	c #9C8E89",
" .	c #423936",
"..	c #010101",
"+.	c #AEBDCF",
"@.	c #3C444E",
"#.	c #7F573A",
"$.	c #6F3E28",
"%.	c #805840",
"&.	c #B07233",
"*.	c #76482D",
"=.	c #A47852",
"-.	c #8C6F5C",
";.	c #9B9494",
">.	c #403936",
",.	c #000000",
"'.	c #97ABC2",
").	c #2F3A46",
"!.	c #654533",
"~.	c #6D473A",
"{.	c #664E4C",
"].	c #80685A",
"^.	c #916E52",
"/.	c #AA9E96",
"(.	c #9B9EA4",
"_.	c #383230",
":.	c #363A3F",
"<.	c #4E5862",
"[.	c #8EA3BC",
"}.	c #607081",
"|.	c #5C626A",
"1.	c #525960",
"2.	c #443F3F",
"3.	c #9E887C",
"4.	c #8C8386",
"5.	c #BCBEC5",
"6.	c #E1E8F1",
"7.	c #848686",
"8.	c #312927",
"9.	c #4E565F",
"0.	c #6A829C",
"a.	c #7590AE",
"b.	c #6C86A2",
"c.	c #647C95",
"d.	c #302D2E",
"e.	c #4F4E4F",
"f.	c #5C5C5F",
"g.	c #333031",
"h.	c #8AA0BA",
"i.	c #96AAC0",
"j.	c #414953",
"k.	c #181D24",
"                    . + @ #     ",
"                  $ % & * = -   ",
"                ; > , ' ) !     ",
"                ~ { ] ^ /     ( ",
"            _ : < [ } | 1 2 3 4 ",
"        5 6 7 8 9 0 a b c d e f ",
"    g h i j k l m n o p q r s   ",
"  t u v w x y z A B C D E F     ",
"G H I J K L M N O P Q R         ",
"S T U V W X Y Z `  ...+.@.      ",
"#.$.%.&.*.=.-.;.>.  ,.'.).      ",
"!.~.{.].^./.(._.:.<.<.[.}.|.1.  ",
"2.3.4.5.6.7.8.  9.0.0.a.b.0.c.,.",
"  d.e.f.g.        ,.,.h.).,.,.  ",
"      ,.,.          ,.i.).      ",
"                      j.k.      "};
